REM DIRINDEX 1\2\4,1\2\5,1\3\6,1\3\7,1\3\8
REM DIRNAME folder01,folder02,folder03,folder04,folder05,folder06,folder07,folder08
TITLE ""
FILE "LEVEL1-013-midashigo.mp3" MP3
  TRACK 01 AUDIO
    TITLE "0:"
    INDEX 01 00:00:00
  TRACK 02 AUDIO
    TITLE "6:cjc092_0496"
    INDEX 01 00:00:03
  TRACK 03 AUDIO
    TITLE "0:"
    INDEX 01 00:01:17
  TRACK 04 AUDIO
    TITLE "7:cjc092_0497"
    INDEX 01 00:01:71
  TRACK 05 AUDIO
    TITLE "8:cjc092_0498"
    INDEX 01 00:03:35
  TRACK 06 AUDIO
    TITLE "0:"
    INDEX 01 00:06:14
  TRACK 07 AUDIO
    TITLE "7:cjc092_0499"
    INDEX 01 00:06:45
  TRACK 08 AUDIO
    TITLE "8:cjc092_0500"
    INDEX 01 00:08:13
  TRACK 09 AUDIO
    TITLE "0:"
    INDEX 01 00:09:20
  TRACK 10 AUDIO
    TITLE "7:cjc092_0501"
    INDEX 01 00:09:42
  TRACK 11 AUDIO
    TITLE "8:cjc092_0502"
    INDEX 01 00:10:72
  TRACK 12 AUDIO
    TITLE "0:"
    INDEX 01 00:14:23
  TRACK 13 AUDIO
    TITLE "7:cjc092_0503"
    INDEX 01 00:14:54
  TRACK 14 AUDIO
    TITLE "8:cjc092_0504"
    INDEX 01 00:16:36
  TRACK 15 AUDIO
    TITLE "0:"
    INDEX 01 00:17:39
  TRACK 16 AUDIO
    TITLE "7:cjc092_0505"
    INDEX 01 00:17:65
  TRACK 17 AUDIO
    TITLE "8:cjc092_0506"
    INDEX 01 00:19:24
  TRACK 18 AUDIO
    TITLE "0:"
    INDEX 01 00:20:51
  TRACK 19 AUDIO
    TITLE "7:cjc092_0507"
    INDEX 01 00:21:08
  TRACK 20 AUDIO
    TITLE "8:cjc092_0508"
    INDEX 01 00:22:36
  TRACK 21 AUDIO
    TITLE "0:"
    INDEX 01 00:24:35
  TRACK 22 AUDIO
    TITLE "7:cjc092_0509"
    INDEX 01 00:24:65
  TRACK 23 AUDIO
    TITLE "8:cjc092_0510"
    INDEX 01 00:26:26
  TRACK 24 AUDIO
    TITLE "0:"
    INDEX 01 00:27:45
  TRACK 25 AUDIO
    TITLE "7:cjc092_0511"
    INDEX 01 00:28:02
  TRACK 26 AUDIO
    TITLE "8:cjc092_0512"
    INDEX 01 00:29:36
  TRACK 27 AUDIO
    TITLE "0:"
    INDEX 01 00:31:63
  TRACK 28 AUDIO
    TITLE "7:cjc092_0513"
    INDEX 01 00:32:25
  TRACK 29 AUDIO
    TITLE "8:cjc092_0514"
    INDEX 01 00:33:66
  TRACK 30 AUDIO
    TITLE "0:"
    INDEX 01 00:36:36
  TRACK 31 AUDIO
    TITLE "7:cjc092_0515"
    INDEX 01 00:36:64
  TRACK 32 AUDIO
    TITLE "8:cjc092_0516"
    INDEX 01 00:38:14
  TRACK 33 AUDIO
    TITLE "0:"
    INDEX 01 00:39:74
  TRACK 34 AUDIO
    TITLE "7:cjc092_0517"
    INDEX 01 00:40:32
  TRACK 35 AUDIO
    TITLE "8:cjc092_0518"
    INDEX 01 00:41:59
  TRACK 36 AUDIO
    TITLE "0:"
    INDEX 01 00:43:31
  TRACK 37 AUDIO
    TITLE "7:cjc092_0519"
    INDEX 01 00:43:62
  TRACK 38 AUDIO
    TITLE "8:cjc092_0520"
    INDEX 01 00:45:22
  TRACK 39 AUDIO
    TITLE "0:"
    INDEX 01 00:46:45
  TRACK 40 AUDIO
    TITLE "7:cjc092_0521"
    INDEX 01 00:47:05
  TRACK 41 AUDIO
    TITLE "8:cjc092_0522"
    INDEX 01 00:48:49
  TRACK 42 AUDIO
    TITLE "0:"
    INDEX 01 00:49:72
  TRACK 43 AUDIO
    TITLE "7:cjc092_0523"
    INDEX 01 00:50:33
  TRACK 44 AUDIO
    TITLE "8:cjc092_0524"
    INDEX 01 00:51:73
  TRACK 45 AUDIO
    TITLE "0:"
    INDEX 01 00:54:52
  TRACK 46 AUDIO
    TITLE "7:cjc092_0525"
    INDEX 01 00:54:74
  TRACK 47 AUDIO
    TITLE "8:cjc092_0526"
    INDEX 01 00:56:25
  TRACK 48 AUDIO
    TITLE "0:"
    INDEX 01 00:57:37
  TRACK 49 AUDIO
    TITLE "7:cjc092_0527"
    INDEX 01 00:57:72
  TRACK 50 AUDIO
    TITLE "8:cjc092_0528"
    INDEX 01 00:59:14
  TRACK 51 AUDIO
    TITLE "0:"
    INDEX 01 01:00:35
  TRACK 52 AUDIO
    TITLE "7:cjc092_0529"
    INDEX 01 01:00:64
  TRACK 53 AUDIO
    TITLE "8:cjc092_0530"
    INDEX 01 01:01:70
  TRACK 54 AUDIO
    TITLE "0:"
    INDEX 01 01:03:51
  TRACK 55 AUDIO
    TITLE "7:cjc092_0531"
    INDEX 01 01:04:01
  TRACK 56 AUDIO
    TITLE "8:cjc092_0532"
    INDEX 01 01:05:32
  TRACK 57 AUDIO
    TITLE "0:"
    INDEX 01 01:08:40
  TRACK 58 AUDIO
    TITLE "7:cjc092_0533"
    INDEX 01 01:08:74
  TRACK 59 AUDIO
    TITLE "8:cjc092_0534"
    INDEX 01 01:10:41
  TRACK 60 AUDIO
    TITLE "0:"
    INDEX 01 01:12:44
